<?xml version="1.0" encoding="UTF-8" standalone="no"?>
<!-- Created with Inkscape (http://www.inkscape.org/) -->

<svg
   width="94.155632mm"
   height="94.155632mm"
   viewBox="0 0 94.155632 94.155632"
   version="1.1"
   id="svg5"
   xml:space="preserve"
   inkscape:version="1.2.2 (b0a8486541, 2022-12-01)"
   sodipodi:docname="Metronome.svg"
   inkscape:export-filename="Metronome.png"
   inkscape:export-xdpi="69.060127"
   inkscape:export-ydpi="69.060127"
   xmlns:inkscape="http://www.inkscape.org/namespaces/inkscape"
   xmlns:sodipodi="http://sodipodi.sourceforge.net/DTD/sodipodi-0.dtd"
   xmlns="http://www.w3.org/2000/svg"
   xmlns:svg="http://www.w3.org/2000/svg"><sodipodi:namedview
     id="namedview7"
     pagecolor="#ffffff"
     bordercolor="#000000"
     borderopacity="0.25"
     inkscape:showpageshadow="2"
     inkscape:pageopacity="0.0"
     inkscape:pagecheckerboard="0"
     inkscape:deskcolor="#d1d1d1"
     inkscape:document-units="mm"
     showgrid="false"
     inkscape:zoom="0.87309435"
     inkscape:cx="163.78528"
     inkscape:cy="180.39287"
     inkscape:window-width="1920"
     inkscape:window-height="1011"
     inkscape:window-x="0"
     inkscape:window-y="32"
     inkscape:window-maximized="1"
     inkscape:current-layer="layer1" /><defs
     id="defs2" /><g
     inkscape:label="Layer 1"
     inkscape:groupmode="layer"
     id="layer1"
     transform="translate(-26.251604,-70.246056)"><g
       id="g1497"
       transform="translate(0,1.48142)"><path
         id="path302-3"
         style="fill:none;stroke:#000000;stroke-width:1;stroke-linejoin:round;stroke-miterlimit:0;stroke-dasharray:none"
         d="m 50.733454,158.07025 v -9.06415 l 17.568995,-74.787306 5.026969,-3.722746 5.026969,3.722746 17.568995,74.787306 v 9.06415 z"
         sodipodi:nodetypes="cccccccc" /><path
         id="path302-3-7"
         style="fill:#000000;stroke:none;stroke-width:0.264583;stroke-miterlimit:0"
         d="m 55.927852,126.89458 -5.194515,22.11131 v 9.06456 h 2.580205 a 3.1427422,3.1427422 0 0 0 -0.03669,0.47594 3.1427422,3.1427422 0 0 0 3.142961,3.14245 3.1427422,3.1427422 0 0 0 3.142444,-3.14245 3.1427422,3.1427422 0 0 0 -0.03617,-0.47594 h 27.607101 a 3.1427422,3.1427422 0 0 0 -0.03669,0.47594 3.1427422,3.1427422 0 0 0 3.14296,3.14245 3.1427422,3.1427422 0 0 0 3.142444,-3.14245 3.1427422,3.1427422 0 0 0 -0.03617,-0.47594 h 2.579688 v -9.06456 l -5.194515,-22.11131 z" /><path
         style="fill:#ff0000;stroke:#000000;stroke-width:2;stroke-linecap:round;stroke-miterlimit:0;stroke-dasharray:none"
         d="m 37.502721,91.532185 32.00409,37.495425"
         id="path805" /><path
         style="fill:#000000;stroke:none;stroke-width:2;stroke-linecap:round;stroke-miterlimit:0;stroke-dasharray:none"
         d="m 47.093213,108.59053 5.893273,-4.9732 3.064354,6.06463 -3.813008,3.04902 z"
         id="path1413" /></g><rect
       style="fill:none;stroke:none;stroke-width:1.70473;stroke-linecap:round;stroke-linejoin:round;stroke-miterlimit:0;stroke-dasharray:none"
       id="rect1553"
       width="94.155632"
       height="94.155632"
       x="26.251604"
       y="70.246056" /></g></svg>
